<?xml version="1.0" standalone="no"?>
<!DOCTYPE svg PUBLIC "-//W3C//DTD SVG 20010904//EN"
 "http://www.w3.org/TR/2001/REC-SVG-20010904/DTD/svg10.dtd">
<svg version="1.0" xmlns="http://www.w3.org/2000/svg"
 width="192.000000pt" height="192.000000pt" viewBox="0 0 192.000000 192.000000"
 preserveAspectRatio="xMidYMid meet">
<metadata>
Created by potrace 1.14, written by Peter Selinger 2001-2017
</metadata>
<g transform="translate(0.000000,192.000000) scale(0.100000,-0.100000)"
fill="#000000" stroke="none">
<path d="M916 1375 c-59 -24 -87 -44 -141 -103 -29 -31 -32 -32 -66 -21 -83
26 -178 -17 -217 -99 -13 -27 -28 -39 -62 -51 -64 -22 -113 -55 -145 -97 -79
-103 -69 -241 24 -334 81 -80 77 -80 604 -80 326 0 471 3 499 12 81 24 148
116 148 203 0 81 -57 170 -128 198 l-39 16 -6 72 c-8 93 -42 164 -108 223 -97
87 -241 111 -363 61z m226 -46 c52 -13 117 -66 152 -122 25 -41 30 -61 35
-139 l6 -92 49 -17 c82 -30 116 -75 116 -156 0 -60 -33 -112 -87 -139 -35 -18
-70 -19 -460 -22 -455 -3 -512 1 -575 44 -44 31 -88 112 -88 164 0 52 44 133
89 164 21 15 62 30 91 35 55 9 70 21 70 59 0 14 15 39 34 58 28 28 42 34 76
34 26 0 56 -8 78 -22 l36 -22 20 29 c104 145 201 183 358 144z"/>
</g>
</svg>
